# xmcd
#
# Track frame offsets:
#	150
#	12800
#	29050
#	46625
#	60325
#	81300
#	97525
#	117525
#	138075
#	154200
#	172000
#	191025
#	206575
#	222175
#	240750
#	258250
#	272175
#	294075
#
# Disc length: 4113 seconds
#
# Revision: 1
# Processed by: cddbd v1.5.1PL0 Copyright (c) Steve Scherf et al.
# Submitted via: CDex 1.50Beta5
#
DISCID=ee100f12
DTITLE=菅原洋一 - 菅原洋一 全曲集
DYEAR=1994
DGENRE=Pop
TTITLE0=知りたくないの
TTITLE1=芽生えてそして
TTITLE2=今日でお別れ
TTITLE3=愛の嵐
TTITLE4=春の雨
TTITLE5=乳母車
TTITLE6=歓びの日に
TTITLE7=ありがとうさよなら
TTITLE8=アマン
TTITLE9=誰故草
TTITLE10=恋すみれ
TTITLE11=忘れな草をあなたに
TTITLE12=五月のバラ
TTITLE13=風の盆
TTITLE14=潮風の中で
TTITLE15=ラスト・ダンスは私に
TTITLE16=ラ・ノヴィア
TTITLE17=愛の讃歌
EXTD=
EXTT0=
EXTT1=
EXTT2=
EXTT3=
EXTT4=
EXTT5=
EXTT6=
EXTT7=
EXTT8=
EXTT9=
EXTT10=
EXTT11=
EXTT12=
EXTT13=
EXTT14=
EXTT15=
EXTT16=
EXTT17=
PLAYORDER=
